<?xml version="1.0" encoding="UTF-8"?>
<svg id="Layer_2" data-name="Layer 2" xmlns="http://www.w3.org/2000/svg" viewBox="0 0 2144.17 1827.62">
  <defs>
    <style>
      .cls-1, .cls-2, .cls-3, .cls-4, .cls-5, .cls-6, .cls-7 {
        stroke-width: 0px;
      }

      .cls-2 {
        fill: #99b9ff;
      }

      .cls-3 {
        fill: #1e4e71;
      }

      .cls-4 {
        fill: #caddff;
      }

      .cls-5 {
        fill: #fff;
      }

      .cls-6 {
        fill: #ffd436;
      }

      .cls-7 {
        fill: #002741;
      }
    </style>
  </defs>
  <g id="Illustration">
    <g id="Dealership">
      <path class="cls-6" d="m1487.91,459.65c-190.61-191.6-136.04-311.69-266.46-400.4-200.68-136.5-575.23-19.06-796.19,168.69C154.62,457.9,14.99,877.77,174.05,1257.62c169.39,404.53,615.1,614.52,1012.8,551.23,355.15-56.51,704.27-336.08,739.25-671.38,3.79-36.34,20.53-232.8-96.86-402.18-97.03-140-190.24-123.77-341.33-275.65Z"/>
      <g>
        <path class="cls-3" d="m1534.09,1470.64l-255.99-4.4-1.84-337.1,448.91-6.32-39.29,222.32c-13,73.57-77.34,126.77-151.79,125.49Z"/>
        <path class="cls-1" d="m2089.56,1308.46l-67.79-1.16-70.69-166.49,171-24.01,7.68,158.42c-3.44,19.49-20.48,33.57-40.2,33.23Z"/>
        <g>
          <path class="cls-7" d="m1918.04,1293.84c6.03-76.1,37.14-125.8,69.14-123.24.4.03,68.19.66,68.34.67,32,2.55,53.05,66.31,47.03,142.41-6.03,76.1-36.85,135.72-68.85,133.17-.16-.01-68.88-5.65-69.07-5.68-32.35-4.93-52.58-71.68-46.59-147.31Z"/>
          <g>
            <ellipse class="cls-7" cx="2044.61" cy="1309.05" rx="138.22" ry="58.12" transform="translate(578.48 3244.12) rotate(-85.48)"/>
            <path class="cls-1" d="m2035.7,1451.72c-.79,0-1.59-.03-2.38-.1-35.17-2.8-57.76-67.62-51.43-147.57h0c2.96-37.43,11.92-72.2,25.21-97.91,13.95-26.98,31.33-41.06,48.81-39.67,35.17,2.8,57.76,67.62,51.43,147.57-2.96,37.43-11.91,72.2-25.2,97.9-13.32,25.76-29.72,39.77-46.43,39.77Zm-44.25-146.91c-5.7,72.1,13.81,134.94,42.63,137.24,13.24,1.08,27.63-11.52,39.52-34.51,12.72-24.6,21.3-58.07,24.16-94.25,5.71-72.1-13.81-134.95-42.62-137.24-13.28-1.08-27.64,11.52-39.52,34.51-12.72,24.6-21.3,58.07-24.17,94.25h0Z"/>
          </g>
          <path class="cls-5" d="m2003.08,1305.74c-4.32,54.55,10.77,100.25,33.71,102.08,22.94,1.83,45.03-40.91,49.35-95.45,4.32-54.55-10.77-100.25-33.71-102.08-22.94-1.83-45.03,40.91-49.35,95.45Z"/>
        </g>
        <g>
          <path class="cls-7" d="m1229.2,1430.81c20.43-106.96,84.16-170.74,152.66-164.84.52.04,83.35,1.05,83.35,1.05,0,0,.76.14,1.14.21,63.78,12.27,98.93,108.92,78.5,215.88-19.98,104.62-85.72,180.35-148.27,172.14-1.4-.18-88.49-16.7-89.12-16.82-63.78-12.27-98.68-100.65-78.26-207.61Z"/>
          <g>
            <ellipse class="cls-7" cx="1429.37" cy="1460.9" rx="197.17" ry="117.6" transform="translate(-272.9 2592.09) rotate(-79.23)"/>
            <path class="cls-1" d="m1405.86,1660.65c-4.84,0-9.64-.45-14.38-1.37-66.27-12.74-103.2-112.11-82.31-221.49h0c13.39-70.12,47.12-129.43,90.22-158.67,22.28-15.11,45.74-20.86,67.87-16.6,66.28,12.74,103.2,112.11,82.31,221.49-13.39,70.12-47.12,129.43-90.22,158.67-17.51,11.88-35.75,17.97-53.49,17.97Zm-87.26-221.06c-19.9,104.19,13.61,198.52,74.69,210.26,19.56,3.76,40.54-1.47,60.67-15.12,40.43-27.42,73.45-85.87,86.18-152.53,19.9-104.19-13.61-198.52-74.69-210.26-19.55-3.75-40.54,1.47-60.67,15.12-40.43,27.42-73.45,85.87-86.18,152.53h0Z"/>
          </g>
          <ellipse class="cls-5" cx="1429.37" cy="1460.9" rx="144.99" ry="86.48" transform="translate(-272.9 2592.09) rotate(-79.23)"/>
        </g>
        <g>
          <path class="cls-7" d="m731.06,1372.64c20.43-106.96,84.16-170.74,152.66-164.84.34.03,35.65.47,60.2.77,7.62-1.11,15.27-1.02,22.86.28.18,0,.29,0,.29,0,0,0,.76.14,1.14.21,1.99.38,3.96.85,5.89,1.39,7.75,2.18,15.03,5.65,21.8,10.25,8.47,5.75,16.13,13.29,22.89,22.31,4.05,5.42,7.78,11.37,11.17,17.8,2.25,4.29,4.35,8.79,6.29,13.48,2.91,7.04,5.45,14.52,7.61,22.37.72,2.62,1.4,5.28,2.03,7.98,1.27,5.4,2.36,10.95,3.27,16.65,5.02,31.32,4.56,66.87-2.46,103.64-.63,3.31-1.31,6.59-2.03,9.83-.24,1.06-.5,2.11-.75,3.16-.5,2.17-1,4.34-1.55,6.48-.33,1.29-.69,2.55-1.03,3.83-.5,1.88-.99,3.76-1.52,5.61-.39,1.37-.82,2.7-1.22,4.06-.52,1.74-1.03,3.48-1.58,5.19-.44,1.37-.9,2.71-1.36,4.06-.56,1.66-1.1,3.34-1.68,4.98-.48,1.35-.98,2.67-1.48,4.01-.59,1.6-1.17,3.22-1.79,4.8-.52,1.34-1.07,2.65-1.6,3.97-.62,1.53-1.23,3.08-1.88,4.59-.56,1.32-1.15,2.62-1.73,3.92-.65,1.47-1.29,2.95-1.96,4.4-.6,1.29-1.22,2.55-1.83,3.82-.68,1.42-1.36,2.85-2.07,4.25-.63,1.25-1.28,2.48-1.92,3.71-.71,1.37-1.42,2.74-2.16,4.09-.67,1.22-1.35,2.42-2.03,3.62-.74,1.31-1.48,2.62-2.23,3.9-.7,1.18-1.41,2.33-2.12,3.49-.77,1.26-1.54,2.52-2.32,3.76-.72,1.13-1.46,2.23-2.19,3.34-.8,1.21-1.59,2.41-2.4,3.59-.75,1.09-1.51,2.15-2.27,3.21-.82,1.15-1.64,2.3-2.48,3.42-.78,1.04-1.56,2.05-2.35,3.07-.84,1.09-1.69,2.18-2.55,3.24-.8.99-1.61,1.95-2.42,2.92-.87,1.03-1.74,2.06-2.61,3.07-.82.94-1.65,1.85-2.48,2.75-.89.98-1.78,1.95-2.68,2.89-.84.88-1.69,1.74-2.54,2.59-.91.91-1.82,1.82-2.74,2.7-.86.83-1.73,1.63-2.59,2.42-.93.85-1.85,1.69-2.79,2.51-.88.77-1.76,1.51-2.64,2.25-.94.79-1.89,1.56-2.84,2.31-.89.7-1.79,1.39-2.68,2.06-.96.72-1.92,1.43-2.89,2.11-.91.64-1.81,1.27-2.72,1.88-.97.65-1.94,1.29-2.92,1.9-.92.58-1.84,1.14-2.76,1.69-.98.58-1.97,1.15-2.95,1.69-.93.51-1.86,1.01-2.79,1.49-.99.51-1.99,1-2.99,1.48-.94.44-1.87.88-2.81,1.29-1.01.44-2.01.86-3.02,1.26-.94.38-1.89.74-2.83,1.08-1.01.37-2.03.7-3.05,1.03-.95.3-1.89.6-2.84.87-1.02.29-2.04.55-3.06.8-.95.23-1.9.46-2.86.65-1.02.21-2.05.39-3.07.56-.96.16-1.91.31-2.87.43-1.03.13-2.05.22-3.08.31-.95.08-1.91.16-2.86.21-1.03.05-2.06.06-3.09.06-.95,0-1.91.01-2.86-.02-1.03-.04-2.06-.12-3.09-.2-.95-.07-1.9-.14-2.85-.26-.31-.04-.61-.04-.92-.08-.11-.01-.74-.13-1.74-.31-.82-.13-1.63-.21-2.45-.36-.62-.12-1.21-.3-1.82-.43-19.93-3.73-82.57-15.61-83.11-15.71-63.78-12.27-98.68-100.65-78.26-207.61Z"/>
          <g>
            <ellipse class="cls-2" cx="931.23" cy="1402.72" rx="144.99" ry="86.48" transform="translate(-620.8 2055.43) rotate(-79.23)"/>
            <path class="cls-1" d="m913.95,1550.88c-3.64,0-7.25-.34-10.82-1.03-49.42-9.51-77.03-83.24-61.53-164.36l4.72.9-4.72-.9c9.91-51.88,34.91-95.81,66.88-117.49,16.67-11.31,34.26-15.6,50.86-12.4,49.42,9.51,77.03,83.24,61.53,164.36-9.91,51.88-34.91,95.81-66.88,117.49-13.08,8.88-26.74,13.43-40.04,13.43Zm34.6-286.7c-11.39,0-23.22,3.99-34.69,11.77-29.46,19.98-53.54,62.65-62.83,111.35-14.5,75.93,9.69,144.62,53.91,153.13,14.05,2.7,29.14-1.08,43.66-10.92,29.46-19.98,53.53-62.65,62.83-111.35,14.5-75.93-9.69-144.62-53.91-153.13-2.95-.57-5.95-.85-8.97-.85Z"/>
          </g>
        </g>
        <g>
          <path class="cls-5" d="m583.2,1436.06c4.02-15.88-16.76-87.33,2.96-154.71.53-1.79,1.07-3.56,1.62-5.31,15.2-47.67,47.77-87.89,90.44-113.79,100.54-61.03,206.33-83.99,242.88-90.51,8.53-1.52,16.16-6.07,21.68-12.77,189.3-229.73,752.47-224.67,891.5-207.13,141.14,17.8,212.2,150.56,225.06,162.72,6.61,6.25,21.47,12.27,34.35,16.63,14.99,5.08,27.66,15.38,35.73,29.04h0c6,10.16,9.19,21.75,9.24,33.56l.71,164.73c.04,8.63-1.77,17.17-5.3,25.05-4.22,9.41-12.54,16.34-22.4,19.27l-.96.29c10.27-78.93-4.68-144.31-35.72-149.76-33.33-5.85-72.59,59.65-87.68,146.3-1.24,7.13-2.28,14.19-3.12,21.13-1.53,12.59-10.51,23.01-22.63,26.6l-376.3,111.7c-5.42,1.61-10.71-2.8-10.18-8.45,10.92-114.51-30.71-211.7-100.75-225.17-77.53-14.91-160.51,78.4-185.34,208.42-7.36,38.54-8.78,75.98-5.12,109.98.28,2.63-1.32,5.08-3.85,5.83h0s-174.03,31.94-393.34,11.57c-219.3-20.38-271.58-57.1-291.49-73.03-19.91-15.93-16.02-36.31-12-52.19Z"/>
          <path class="cls-5" d="m1793.4,848.24c-105.82,1.53-191.79,74.15-269.44,203.5-14.9,24.82-40.03,41.71-68.41,47.03-115.45,21.65-418.73,85.93-526.85,181.2-10.09,8.89-12.33,23.85-5.29,35.33,40.15,65.51,197.35,259.75,356.62,234.41,0,0-174.03,31.94-393.34,11.57-219.3-20.38-271.58-57.1-291.49-73.03-19.91-15.93-16.02-36.31-12-52.19,4.02-15.88-16.76-87.33,2.96-154.71.55-1.88,1.12-3.73,1.7-5.55,15.3-47.8,48-87.89,90.84-113.83,100.39-60.81,205.88-83.71,242.39-90.22,8.47-1.51,16.12-5.99,21.6-12.64,158.79-192.92,581.13-220.36,794.99-213.83l55.73,2.97Z"/>
          <path class="cls-1" d="m1035.14,1572.81c-45.91,0-96.17-1.86-148.9-6.76-227.93-21.18-277.69-60.97-294.05-74.05-23.39-18.71-17.05-43.7-13.65-57.12h0c1.05-4.16-.21-15.24-1.67-28.06-3.62-31.77-9.09-79.78,4.68-126.82.54-1.84,1.09-3.64,1.66-5.42,15.37-48.19,48.23-89.54,92.53-116.44,100.06-60.74,204.34-83.97,244.53-91.13,7.32-1.31,14-5.25,18.82-11.1,102.32-124.16,310.78-176.2,467.65-197.99,179.53-24.94,354.41-20.15,428.16-10.85,121.59,15.33,191.86,114.23,218.31,151.46,4.37,6.15,7.81,11,9.45,12.54,4.8,4.55,16.38,10.08,32.59,15.57,16.07,5.45,29.67,16.51,38.32,31.15,6.43,10.89,9.86,23.33,9.91,35.98l.71,164.73c.04,9.39-1.89,18.49-5.73,27.04-4.72,10.53-13.98,18.52-25.41,21.91l-.95.28c-1.56.46-3.25.11-4.49-.94-1.24-1.05-1.86-2.66-1.65-4.28,9.91-76.11-4.06-139.55-31.78-144.41-6.17-1.09-12.86.88-19.89,5.81-26.2,18.4-51.21,73.29-62.23,136.58-1.21,6.91-2.24,13.94-3.09,20.88-1.75,14.43-11.97,26.46-26.03,30.63l-376.3,111.7c-4.07,1.21-8.44.32-11.71-2.37-3.29-2.71-5.02-6.87-4.61-11.14,10.75-112.73-30.9-207.31-96.88-220-24.04-4.62-49.82,1.78-74.52,18.54-49.36,33.49-89.67,104.79-105.19,186.07-7.11,37.21-8.81,73.74-5.06,108.56.53,4.94-2.52,9.54-7.25,10.95-.17.05-.33.09-.51.12-1.32.24-102.33,18.38-245.75,18.38Zm644.44-723.21c-218.45,0-585.84,33.73-733.09,212.41-6.26,7.61-14.98,12.74-24.54,14.44-39.66,7.07-142.55,29.99-241.23,89.89-42.32,25.69-73.7,65.16-88.36,111.15-.54,1.71-1.08,3.44-1.59,5.2-13.22,45.17-7.88,92.03-4.35,123.03,1.76,15.44,2.92,25.64,1.43,31.5h0c-4.16,16.4-6.79,33.56,10.34,47.26,15.79,12.63,63.87,51.08,288.94,71.99,211.21,19.62,382.44-9.81,391.65-11.44.22-.12.35-.38.32-.67-3.85-35.77-2.11-73.24,5.17-111.39,16.23-84.97,57.06-156.83,109.24-192.22,26.85-18.21,55.12-25.14,81.73-20.02,72.03,13.85,116.03,110.73,104.62,230.34-.15,1.56.76,2.49,1.16,2.81.48.39,1.5.99,2.88.58l376.3-111.7c10.39-3.09,17.94-11.95,19.23-22.58.87-7.11,1.93-14.3,3.16-21.38,11.61-66.66,37.59-122.71,66.17-142.79,9.19-6.45,18.3-8.95,27.07-7.41,32.81,5.75,49.48,67.04,40.62,147.07,5.88-3.17,10.56-8.1,13.25-14.1,3.28-7.3,4.92-15.06,4.89-23.07l-.71-164.73c-.05-10.95-3.01-21.72-8.58-31.14-7.48-12.66-19.25-22.22-33.13-26.93-18-6.1-30.15-12.05-36.11-17.69-2.31-2.19-5.64-6.87-10.67-13.96-25.78-36.29-94.28-132.68-211.68-147.49-26.48-3.34-82.24-6.99-154.11-6.99Zm-1096.38,586.45h.03-.03Z"/>
        </g>
        <path class="cls-7" d="m605.8,1463.61c-1.17,6.47,1.78,13.01,7.46,16.3,31.41,18.18,100.61,44.27,272.89,60.28,24.01,2.23,47.48,3.84,70.24,4.92,4.73.23,7.21-5.55,3.81-8.85l-14.51-14.12c-18.54-18.04-43.3-28.17-69.12-28.3-60.03-.3-175.18-5.92-249.09-41.33-9.12-4.37-19.87,1.13-21.68,11.1h0Z"/>
        <g>
          <path class="cls-5" d="m1310.51,1214.68l-19.45,26.43c-22.07,30-56.02,48.93-93.06,51.89l-111.03,8.88c-45.42,3.63-90.96-5.25-131.71-25.7l-3.62-1.81s164.97-77.62,355.61-66.72c3.48.2,5.34,4.22,3.26,7.04Z"/>
          <path class="cls-3" d="m1067.11,1307.47c-39.49,0-78.53-9.2-114.01-27l-3.61-1.81c-1.64-.82-2.67-2.51-2.65-4.35.03-1.84,1.09-3.5,2.76-4.29,1.66-.78,168.25-78.04,357.93-67.17,3.36.19,6.34,2.2,7.77,5.26,1.45,3.07,1.1,6.68-.92,9.41l-19.45,26.43c-22.91,31.14-58.09,50.76-96.54,53.83l-111.04,8.88c-6.75.54-13.5.81-20.24.81Zm-104.08-32.85c38.5,18.1,81.08,25.87,123.56,22.47l111.04-8.88c35.67-2.85,68.32-21.06,89.57-49.95l19.03-25.87c-161.47-9.01-305.83,46.45-343.2,62.22Z"/>
          <path class="cls-7" d="m1081.86,1284.26l76.43-7.86c37.04-2.96,70.99-21.89,93.06-51.89l12.62-17.89c-130.97,1.19-243.9,40-290.08,58.33,0,0,45.29,20.95,107.97,19.31Z"/>
        </g>
        <path class="cls-7" d="m615.14,1286.86c-1.88-.72-2.86-2.87-2.04-4.72,2.99-6.8,14.66-14.6,35.4-15.41,179.99-6.97,233.42,22.82,246.55,33.38,1.62,1.3.87,3.91-1.19,4.13-57.5,6.2-105.7,7.06-145.07,5.22-3.97-.19-45.81-3.65-49.01-4.03-48.48-5.87-76.17-15.32-84.63-18.57Z"/>
        <path class="cls-7" d="m592.74,1375.78c-1.71-4.89,4.13-8.89,8.11-5.6,32.39,26.78,110.21,50.36,241.2,47.54,105.5-2.27,239.96-14.03,312.09-20.99,4.56-.44,5.64,6.21,1.18,7.26-80.39,19.01-242.22,53.33-370.17,55.19-143.21,2.09-181.93-53.48-192.4-83.4Z"/>
        <g>
          <path class="cls-3" d="m2010.93,1001.86c1.98-7.56.32-15.61-4.47-21.78-23.07-29.73-98.88-113.27-219.21-108.03-175.93,7.66-256.61,228.23-256.61,228.23,0,0,375.11-49.86,464.54-81.23,7.77-2.73,13.65-9.21,15.75-17.2h0Z"/>
          <path class="cls-1" d="m1530.64,1105.09c-1.44,0-2.83-.65-3.74-1.8-1.05-1.31-1.34-3.08-.77-4.65.21-.56,20.9-56.46,63-112.48,56.05-74.59,124.49-115.7,197.91-118.9,123.97-5.36,202.16,82.74,223.21,109.88,5.67,7.31,7.66,17.01,5.32,25.94-2.52,9.6-9.55,17.26-18.8,20.51-36.7,12.88-124.08,30.2-259.71,51.51-2.6.43-5.07-1.38-5.49-4-.41-2.62,1.38-5.08,4-5.49,133.15-20.91,222.37-38.58,258.02-51.08,6.24-2.19,10.99-7.38,12.69-13.88,1.59-6.06.24-12.65-3.62-17.62-20.34-26.22-96.02-111.37-215.21-106.17-152.49,6.64-233.2,179.18-249.3,217.58,21-2.84,80.12-10.96,149.15-21.39,2.65-.41,5.07,1.41,5.47,4.03.4,2.62-1.41,5.07-4.03,5.47-86.08,13.01-156.77,22.42-157.48,22.51-.21.03-.42.04-.63.04Z"/>
        </g>
        <g>
          <path class="cls-3" d="m1191.77,1418.78c5.19-1.05,9.79,3.24,8.26,8.32l-20.5,68c-5.44,18.05-21.35,30.91-40.08,32.34-3.74.29-10.1.85-16.35,1.42-4.8.44-25.07-.16-41.85-.76-20.72-.74-39.46-13.52-46.73-33-2.2-5.89-3.32-12.14-2.42-18.34,1.7-11.67,126.95-51.38,159.68-57.98Z"/>
          <path class="cls-3" d="m1191.74,1418.79c5.08-1.53,9.83,3.21,8.29,8.31l-20.5,68c-5.44,18.05-21.35,30.91-40.08,32.34-3.74.29-10.1.85-16.35,1.42-8.53.78-15.4-6.88-13.72-15.31,2.36-11.81,3.89-30.08,7.49-54.88,1.7-11.67,8.58-21.87,20-24.68,15.11-3.72,35.02-9.22,54.86-15.2Z"/>
          <path class="cls-7" d="m1117.12,1533.81c-7.12,0-19.18-.3-36.05-.91-23.14-.83-43.18-15-51.06-36.12-2.71-7.27-3.61-14.24-2.68-20.71.55-3.78,1.57-10.8,71.4-34.74,34.48-11.82,74.93-23.79,92.08-27.26h0c4.24-.85,8.61.53,11.42,3.61,2.66,2.92,3.55,6.96,2.39,10.81l-20.49,67.99c-5.97,19.81-23.78,34.17-44.31,35.75-3.72.28-10.06.84-16.29,1.41-1.23.11-3.37.17-6.41.17Zm-80.36-55.77c-.57,4.7.19,9.87,2.25,15.39,6.52,17.46,23.17,29.19,42.41,29.88,31.05,1.11,39.17.96,41.25.77,6.27-.57,12.66-1.13,16.42-1.42,16.61-1.27,31.02-12.9,35.85-28.94l20.5-68c.19-.64.1-1.14-.3-1.57-.43-.47-1.28-.88-2.41-.66h0c-36.78,7.42-147.2,43.91-155.96,54.55Z"/>
        </g>
        <g>
          <path class="cls-7" d="m1582.85,1067.77l8.2-17.74c7.5-16.21,24.71-25.56,42.34-22.99l56.32,8.22c7.86,1.15,14.4,6.64,16.92,14.2l6.11,18.36c1.7,5.12-.55,10.72-5.32,13.21l-2.14,1.12c-9.25,4.84-19.35,7.82-29.74,8.76l-143.87,13.07h0c-7.02-8.84-1.42-21.96,9.8-22.97l25.86-2.31c6.75-.6,12.67-4.77,15.52-10.94Z"/>
          <path class="cls-1" d="m1531.68,1108.79c-1.46,0-2.84-.66-3.76-1.82-4.35-5.48-5.34-12.89-2.58-19.33,2.79-6.51,8.67-10.77,15.71-11.4l25.85-2.31c5.02-.45,9.46-3.58,11.59-8.18l8.2-17.74c8.32-18,27.8-28.6,47.39-25.73l56.32,8.22c9.71,1.42,17.68,8.1,20.78,17.44l6.11,18.36c2.46,7.39-.75,15.38-7.64,18.98l-2.14,1.12c-9.86,5.16-20.47,8.28-31.53,9.29l-143.87,13.07c-.15.01-.29.02-.43.02Zm96-77.36c-13.62,0-26.43,7.99-32.27,20.62l-8.2,17.74h0c-3.56,7.7-11.02,12.96-19.45,13.71l-25.86,2.31c-3.47.31-6.36,2.41-7.75,5.63-1.06,2.48-1.03,5.15.02,7.51l140.93-12.8c9.81-.89,19.21-3.66,27.95-8.23l2.14-1.12c2.7-1.41,3.95-4.54,2.99-7.44l-6.11-18.36c-1.95-5.87-6.96-10.07-13.06-10.97l-56.32-8.22c-1.68-.24-3.35-.37-5.02-.37Zm-44.82,36.34h.03-.03Z"/>
        </g>
        <g>
          <path class="cls-3" d="m1659.89,871.22c1.44-.81.84-3-.81-2.98-45.12.72-315.55,7.79-482.58,75.3-94.21,38.08-148.41,79.3-187.76,116.78-3.56,3.39-1.06,9.39,3.84,9.26,42.57-1.13,184.51-3.99,435.7-.24,48.5.72,72.58-20.81,121.3-94.45,40.22-60.81,93.1-93.97,110.3-103.69Z"/>
          <path class="cls-5" d="m1348.21,934.11c1.49-2.8-.63-6.13-3.77-5.69-61.09,8.62-125.49,22.03-177.21,42.86-73.54,29.63-115.87,61.75-146.61,90.96-2.78,2.64-.85,7.33,2.98,7.23,29.06-.74,117.53-2.45,270.57-.75v-.13c6.64-22.48,20.18-70.82,54.03-134.48Z"/>
          <path class="cls-7" d="m1265.33,1030.43c20.31,10.98,36.31,25.09,45.44,38.72-7.79-.06-15.44-.11-22.97-.15-7.19-8.32-18.34-17.07-31.88-24.4-27.74-15-54.99-18.31-60.86-7.38-4.02,7.49,3.04,19.72,16.82,31.5-7.25,0-14.33,0-21.26,0-13.54-15.31-19.17-31.03-13.23-42.09,10.05-18.72,49.42-17.02,87.94,3.81Z"/>
          <path class="cls-1" d="m992.44,1074.4c-4.13,0-7.79-2.44-9.38-6.28-1.63-3.92-.69-8.35,2.38-11.27,35.04-33.36,88.22-76.9,189.27-117.75,166.54-67.32,432.65-74.83,484.3-75.66,2.95-.1,5.5,1.9,6.27,4.73.76,2.82-.48,5.8-3.03,7.23h0c-15.38,8.68-68.68,41.71-108.66,102.15-47.65,72.03-72.53,96.62-122.98,96.62-.8,0-1.59,0-2.4-.02-253.72-3.79-397.49-.78-435.5.23-.09,0-.18,0-.27,0Zm654.67-201.11c-71.98,1.74-314.15,12.2-468.8,74.71-99.56,40.24-151.83,83.02-186.26,115.8-.1.09-.28.27-.13.63.16.37.41.35.53.36,38.06-1.02,181.99-4.03,435.9-.24,44.72.76,67.71-17.44,117.22-92.29,34.57-52.26,78.84-84.63,101.53-98.97Zm10.42-6.25s0,0-.01,0c0,0,0,0,0,0h0Z"/>
        </g>
        <path class="cls-7" d="m1848.35,1100.97c1.77-2.68-.54-6.19-3.7-5.6l-79.8,14.92c-13.37,3.56-22.69,13.4-27.76,20.19-1.88,2.52.3,6.03,3.38,5.45l79.7-15.03c11.04-2.08,21.08-9.18,28.16-19.93h0Z"/>
      </g>
      <g>
        <g>
          <polygon class="cls-5" points="484.06 402.13 674.11 503.2 851.25 291.43 484.06 402.13"/>
          <path class="cls-1" d="m674.11,506.5c-.53,0-1.06-.12-1.55-.39l-190.05-101.07c-1.18-.63-1.87-1.91-1.74-3.24.13-1.33,1.05-2.45,2.33-2.84l367.19-110.7c1.39-.42,2.9.12,3.71,1.34.8,1.22.71,2.82-.22,3.94l-177.14,211.77c-.64.77-1.58,1.18-2.53,1.18Zm-181.42-103.52l180.61,96.05,168.35-201.25-348.95,105.2Z"/>
        </g>
        <g>
          <polygon class="cls-7" points="568.67 519.61 542.05 433.56 795.03 323.56 574.45 450.24 623.09 475.66 568.67 519.61"/>
          <path class="cls-1" d="m568.67,522.91c-.32,0-.65-.05-.96-.14-1.05-.32-1.87-1.13-2.19-2.18l-26.62-86.05c-.5-1.61.29-3.33,1.84-4l252.98-110c1.61-.69,3.48-.02,4.26,1.55.79,1.57.21,3.47-1.3,4.35l-215.36,123.69,43.3,22.63c.99.52,1.65,1.49,1.76,2.6.11,1.11-.34,2.2-1.21,2.89l-54.42,43.94c-.6.48-1.33.73-2.07.73Zm-22.59-87.5l24.31,78.58,46.72-37.72-44.18-23.09c-1.07-.56-1.75-1.65-1.77-2.86-.02-1.21.61-2.33,1.66-2.93l169.14-97.14-195.87,85.17Z"/>
        </g>
        <path class="cls-1" d="m568.68,522.67c-.09,0-.17,0-.26-.01-1.69-.14-2.94-1.62-2.8-3.31l5.78-69.36c.14-1.68,1.63-2.92,3.31-2.8,1.69.14,2.94,1.62,2.8,3.31l-5.78,69.36c-.13,1.6-1.47,2.81-3.05,2.81Z"/>
      </g>
      <g>
        <g>
          <path class="cls-1" d="m286.63,408.12c-.66,0-1.32-.2-1.9-.6-1.49-1.05-1.84-3.11-.79-4.6,50.36-71.32,111.34-131.78,181.21-179.73,1.5-1.03,3.56-.65,4.59.86,1.03,1.5.65,3.56-.86,4.59-69.23,47.5-129.64,107.41-179.55,178.09-.64.91-1.66,1.4-2.7,1.4Z"/>
          <path class="cls-1" d="m244.33,535.29c-.5,0-1-.11-1.48-.35-1.63-.82-2.29-2.8-1.47-4.43,48.43-96.65,114.68-177.33,196.91-239.81,1.45-1.1,3.52-.82,4.62.63,1.1,1.45.82,3.52-.63,4.62-81.42,61.86-147.03,141.77-195,237.51-.58,1.16-1.74,1.82-2.95,1.82Z"/>
          <path class="cls-1" d="m489.4,233.8c-.26,0-.51-.03-.77-.09-1.19-.29-2.12-1.2-2.43-2.39l-6.92-26.87c-.29-1.1.02-2.28.81-3.1.79-.83,1.94-1.18,3.06-.95,12.65,2.65,25.14,6.41,25.26,6.45,1.08.32,1.91,1.17,2.22,2.25.31,1.08.05,2.24-.7,3.09l-18.06,20.49c-.63.72-1.54,1.12-2.48,1.12Zm-2.38-25.78l4.03,15.63,10.49-11.9c-3.62-1.01-8.87-2.41-14.52-3.72Z"/>
        </g>
        <g>
          <path class="cls-1" d="m976.05,79.97c-1.82,0-3.3-1.48-3.3-3.3v-17.07c0-1.82,1.48-3.3,3.3-3.3s3.3,1.48,3.3,3.3v17.07c0,1.82-1.48,3.3-3.3,3.3Z"/>
          <path class="cls-1" d="m976.05,119.75c-1.82,0-3.3-1.48-3.3-3.3v-17.07c0-1.82,1.48-3.3,3.3-3.3s3.3,1.48,3.3,3.3v17.07c0,1.82-1.48,3.3-3.3,3.3Z"/>
          <path class="cls-1" d="m964.7,91.32h-17.07c-1.82,0-3.3-1.48-3.3-3.3s1.48-3.3,3.3-3.3h17.07c1.82,0,3.3,1.48,3.3,3.3s-1.48,3.3-3.3,3.3Z"/>
          <path class="cls-1" d="m1004.48,91.32h-17.07c-1.82,0-3.3-1.48-3.3-3.3s1.48-3.3,3.3-3.3h17.07c1.82,0,3.3,1.48,3.3,3.3s-1.48,3.3-3.3,3.3Z"/>
        </g>
        <g>
          <path class="cls-1" d="m1831.41,124.36c-1.82,0-3.3-1.48-3.3-3.3v-17.07c0-1.82,1.48-3.3,3.3-3.3s3.3,1.48,3.3,3.3v17.07c0,1.82-1.48,3.3-3.3,3.3Z"/>
          <path class="cls-1" d="m1831.41,164.12c-1.82,0-3.3-1.48-3.3-3.3v-17.07c0-1.82,1.48-3.3,3.3-3.3s3.3,1.48,3.3,3.3v17.07c0,1.82-1.48,3.3-3.3,3.3Z"/>
          <path class="cls-1" d="m1820.06,135.7h-17.07c-1.82,0-3.3-1.48-3.3-3.3s1.48-3.3,3.3-3.3h17.07c1.82,0,3.3,1.48,3.3,3.3s-1.48,3.3-3.3,3.3Z"/>
          <path class="cls-1" d="m1859.83,135.7h-17.07c-1.82,0-3.3-1.48-3.3-3.3s1.48-3.3,3.3-3.3h17.07c1.82,0,3.3,1.48,3.3,3.3s-1.48,3.3-3.3,3.3Z"/>
        </g>
        <path class="cls-7" d="m209.53,1286.86c-1.48,0-2.83-1.01-3.2-2.51-2.02-8.16-3.8-16.95-5.3-26.13-.29-1.8.93-3.5,2.73-3.79,1.8-.3,3.5.93,3.79,2.73,1.47,9.01,3.22,17.63,5.19,25.62.44,1.77-.64,3.56-2.41,4-.26.07-.53.1-.79.1Zm-8.69-52.06c-1.67,0-3.11-1.27-3.28-2.97-.87-8.53-1.55-17.44-2.02-26.49-.09-1.82,1.3-3.37,3.12-3.47,1.78-.09,3.37,1.3,3.47,3.12.46,8.95,1.13,17.75,1.99,26.17.18,1.81-1.13,3.43-2.95,3.62-.11.01-.23.02-.34.02Zm-2.81-52.72c-1.81,0-3.28-1.45-3.3-3.27-.02-2.3-.03-4.61-.03-6.94,0-6.43.09-13.03.27-19.61.05-1.82,1.51-3.29,3.39-3.21,1.82.05,3.26,1.56,3.21,3.39-.17,6.52-.26,13.06-.26,19.43,0,2.3.01,4.59.03,6.87.02,1.82-1.44,3.32-3.27,3.34h-.03Zm1.4-52.82c-.07,0-.13,0-.2,0-1.82-.11-3.2-1.67-3.09-3.49.53-8.72,1.21-17.62,2.02-26.45.17-1.81,1.77-3.13,3.59-2.99,1.82.17,3.15,1.78,2.99,3.59-.81,8.77-1.49,17.6-2.01,26.25-.11,1.75-1.56,3.1-3.29,3.1Zm4.84-52.63c-.13,0-.27,0-.4-.02-1.81-.22-3.1-1.87-2.88-3.68,1.06-8.67,2.27-17.52,3.59-26.28.27-1.8,1.95-3.05,3.76-2.77,1.8.27,3.04,1.96,2.77,3.76-1.32,8.7-2.51,17.48-3.57,26.09-.2,1.67-1.63,2.9-3.27,2.9Zm7.89-52.25c-.19,0-.39-.02-.59-.05-1.79-.32-2.99-2.04-2.66-3.83,1.56-8.69,3.26-17.44,5.05-26.03.37-1.79,2.13-2.93,3.91-2.56,1.79.37,2.93,2.12,2.56,3.91-1.78,8.53-3.46,17.23-5.02,25.85-.29,1.6-1.68,2.72-3.25,2.72Zm10.78-51.74c-.25,0-.51-.03-.76-.09-1.77-.42-2.87-2.2-2.45-3.97,2.04-8.58,4.22-17.23,6.48-25.71.47-1.76,2.27-2.81,4.04-2.34,1.76.47,2.81,2.28,2.34,4.04-2.25,8.42-4.41,17.01-6.43,25.53-.36,1.52-1.71,2.54-3.21,2.54Zm13.63-51.05c-.31,0-.63-.04-.94-.14-1.75-.52-2.74-2.36-2.22-4.1,2.51-8.44,5.17-16.94,7.91-25.27.57-1.73,2.44-2.67,4.17-2.1,1.73.57,2.67,2.43,2.1,4.17-2.72,8.27-5.36,16.71-7.86,25.09-.43,1.43-1.74,2.36-3.16,2.36Zm16.51-50.13c-.37,0-.75-.06-1.13-.2-1.71-.62-2.6-2.52-1.98-4.23,3.02-8.33,6.2-16.67,9.43-24.79.67-1.69,2.6-2.51,4.29-1.84,1.69.67,2.52,2.6,1.84,4.29-3.21,8.05-6.36,16.32-9.36,24.6-.49,1.34-1.75,2.17-3.1,2.17Zm19.57-49.09c-.44,0-.89-.09-1.32-.27-1.67-.73-2.43-2.68-1.7-4.35,3.57-8.17,7.29-16.29,11.05-24.15.78-1.64,2.76-2.34,4.4-1.55,1.64.79,2.34,2.76,1.55,4.4-3.73,7.79-7.41,15.85-10.95,23.95-.54,1.24-1.76,1.98-3.03,1.98Zm22.85-47.71c-.52,0-1.04-.12-1.53-.38-1.61-.84-2.24-2.84-1.39-4.45,4.14-7.89,8.44-15.74,12.8-23.32.91-1.58,2.93-2.12,4.51-1.22,1.58.91,2.13,2.93,1.22,4.51-4.31,7.51-8.58,15.28-12.68,23.09-.59,1.13-1.74,1.77-2.93,1.77Zm26.35-45.83c-.6,0-1.21-.16-1.76-.51-1.54-.97-2.01-3.01-1.03-4.55,4.78-7.58,9.71-15.03,14.65-22.15,1.04-1.5,3.1-1.87,4.59-.83,1.5,1.04,1.87,3.1.83,4.59-4.89,7.04-9.77,14.41-14.49,21.9-.63.99-1.7,1.54-2.79,1.54Zm30.12-43.37c-.7,0-1.41-.22-2.01-.68-1.45-1.11-1.72-3.18-.61-4.63,5.42-7.08,11.03-14.04,16.68-20.68,1.18-1.38,3.26-1.56,4.65-.38,1.39,1.18,1.56,3.26.38,4.65-5.57,6.56-11.12,13.43-16.47,20.42-.65.85-1.63,1.29-2.62,1.29Zm34.21-40.2c-.82,0-1.63-.3-2.27-.9-1.32-1.26-1.38-3.34-.12-4.67,6.16-6.49,12.49-12.81,18.84-18.76,1.33-1.25,3.42-1.18,4.67.15,1.25,1.33,1.18,3.42-.15,4.67-6.25,5.87-12.5,12.09-18.56,18.49-.65.68-1.52,1.03-2.4,1.03Zm38.52-36.12c-.95,0-1.89-.41-2.54-1.2-1.16-1.4-.97-3.49.44-4.65,6.87-5.69,13.95-11.18,21.05-16.31,1.47-1.07,3.54-.73,4.61.74,1.07,1.48.74,3.54-.74,4.61-6.98,5.04-13.94,10.44-20.7,16.04-.62.51-1.36.76-2.1.76Zm42.77-30.88c-1.1,0-2.18-.55-2.8-1.56-.96-1.55-.49-3.58,1.06-4.55,7.55-4.7,15.32-9.15,23.08-13.23,1.61-.84,3.61-.23,4.46,1.39.85,1.61.23,3.61-1.39,4.46-7.62,4.01-15.25,8.38-22.67,12.99-.54.34-1.15.5-1.74.5Z"/>
        <path class="cls-7" d="m600.98,1763.26c-.46,0-.92-.09-1.36-.29-8.05-3.64-16.13-7.42-24.01-11.21-1.64-.79-2.33-2.76-1.54-4.41.79-1.64,2.76-2.33,4.41-1.54,7.83,3.77,15.86,7.52,23.87,11.14,1.66.75,2.4,2.71,1.64,4.37-.55,1.22-1.75,1.94-3.01,1.94Zm-47.6-22.91c-.51,0-1.02-.12-1.5-.36-7.89-4.03-15.77-8.19-23.44-12.35-1.6-.87-2.2-2.87-1.33-4.48.87-1.61,2.87-2.19,4.48-1.33,7.62,4.14,15.46,8.27,23.3,12.27,1.62.83,2.27,2.82,1.44,4.44-.58,1.14-1.74,1.8-2.94,1.8Zm-46.4-25.21c-.56,0-1.13-.14-1.65-.44-7.68-4.44-15.34-9-22.76-13.56-1.55-.95-2.04-2.99-1.08-4.54.95-1.56,2.99-2.04,4.54-1.08,7.37,4.53,14.97,9.06,22.6,13.47,1.58.91,2.12,2.93,1.21,4.51-.61,1.06-1.72,1.65-2.86,1.65Zm-44.97-27.68c-.62,0-1.25-.17-1.81-.54-7.42-4.87-14.8-9.88-21.94-14.89-1.49-1.05-1.85-3.11-.8-4.6,1.05-1.49,3.11-1.85,4.6-.8,7.08,4.97,14.4,9.94,21.77,14.78,1.52,1,1.95,3.05.95,4.57-.63.96-1.69,1.49-2.76,1.49Zm-43.22-30.37c-.69,0-1.39-.22-1.98-.66-7.12-5.37-14.16-10.87-20.91-16.35-1.42-1.15-1.63-3.23-.48-4.64,1.15-1.42,3.23-1.64,4.64-.48,6.69,5.43,13.66,10.88,20.72,16.2,1.46,1.1,1.75,3.17.65,4.62-.65.86-1.64,1.32-2.64,1.32Zm-41-33.32c-.77,0-1.55-.27-2.18-.82-6.71-5.89-13.3-11.93-19.59-17.93-1.32-1.26-1.37-3.35-.11-4.67,1.26-1.32,3.35-1.36,4.67-.11,6.22,5.95,12.75,11.92,19.39,17.75,1.37,1.2,1.5,3.29.3,4.66-.65.74-1.56,1.12-2.48,1.12Zm-38.18-36.51c-.87,0-1.74-.34-2.39-1.02-6.17-6.45-12.19-13.06-17.9-19.65-1.2-1.38-1.05-3.46.33-4.66,1.38-1.19,3.47-1.04,4.66.33,5.64,6.51,11.59,13.04,17.69,19.41,1.26,1.32,1.21,3.41-.1,4.67-.64.61-1.46.92-2.28.92Zm-34.57-39.93c-.98,0-1.96-.44-2.61-1.27-5.49-7.05-10.79-14.27-15.75-21.44-1.04-1.5-.66-3.55.84-4.59,1.49-1.03,3.55-.66,4.59.84,4.89,7.07,10.11,14.18,15.52,21.13,1.12,1.44.86,3.51-.58,4.63-.6.47-1.32.7-2.03.7Zm-29.98-43.46c-1.12,0-2.21-.57-2.83-1.59-4.62-7.65-9-15.45-13.02-23.21-.84-1.62-.21-3.61,1.41-4.45,1.62-.85,3.61-.21,4.45,1.41,3.96,7.62,8.27,15.31,12.82,22.83.94,1.56.44,3.59-1.12,4.53-.54.32-1.12.47-1.71.47Zm-24.27-46.84c-1.27,0-2.49-.74-3.03-1.99-3.36-7.75-6.48-15.65-9.27-23.49-.61-1.72.29-3.61,2-4.22,1.72-.62,3.6.29,4.22,2,2.74,7.7,5.8,15.47,9.11,23.07.73,1.67-.04,3.62-1.71,4.34-.43.18-.87.27-1.31.27Z"/>
      </g>
      <g>
        <g>
          <g>
            <g>
              <path class="cls-5" d="m311.48,1328.31l18.67,50.15c12.3,33.04,11.86,69.48-1.23,102.21l-102.74,256.86,64.78,55.07h-132.81l76.57-306.29c7.13-28.54,6.69-58.45-1.3-86.76l-23.44-83.12,101.5,11.88Z"/>
              <path class="cls-1" d="m290.96,1797.05h-132.81c-1.37,0-2.66-.63-3.51-1.71-.84-1.08-1.14-2.49-.81-3.82l76.57-306.29c6.93-27.74,6.5-56.95-1.27-84.47l-23.45-83.12c-.4-1.43-.07-2.97.89-4.1.96-1.13,2.42-1.7,3.9-1.53l101.5,11.88c1.66.19,3.07,1.3,3.65,2.87l18.67,50.15c12.72,34.15,12.26,71.59-1.27,105.42l-101.56,253.89,62.35,52.99c1.42,1.21,1.94,3.17,1.29,4.92-.64,1.75-2.31,2.91-4.18,2.91Zm-127.11-8.9h115.01l-55.56-47.23c-1.46-1.24-1.96-3.27-1.25-5.04l102.74-256.86c12.71-31.78,13.13-66.94,1.19-99.01l-17.73-47.61-92.19-10.79,21.64,76.73c8.18,29.01,8.64,59.8,1.34,89.04l-75.19,300.76Z"/>
            </g>
            <g>
              <path class="cls-5" d="m168.95,1238.69l20.59,186.72c2.46,22.31,2.6,44.81.42,67.15l-34.69,245.34,53.63,56.87c5.37,3.83,2.62,12.29-3.97,12.24l-104.01-11.16.27-309.52c-1.26-20.38-3.56-40.69-6.89-60.84l-16.78-101.49,91.42-85.3Z"/>
              <path class="cls-1" d="m204.99,1811.45c-.19,0-.36,0-.53-.03l-104.01-11.16c-2.26-.24-3.98-2.15-3.97-4.42l.28-309.53c-1.24-19.89-3.54-40.2-6.83-60.11l-16.78-101.49c-.24-1.47.26-2.96,1.35-3.98l91.42-85.3c1.23-1.15,3.01-1.5,4.58-.92,1.58.58,2.69,2.01,2.88,3.68l20.59,186.72c2.49,22.56,2.63,45.46.43,68.07l-34.41,243.41,51.89,55.03c3.77,2.93,5.25,7.69,3.76,12.28-1.53,4.71-5.7,7.74-10.64,7.74Zm-99.61-19.6l99.76,10.7c1.39-.07,1.88-1.12,2.03-1.59.16-.48.39-1.7-.85-2.58-.23-.17-.45-.36-.65-.57l-53.63-56.87c-.93-.98-1.36-2.34-1.17-3.67l34.69-245.34c2.13-21.8,1.99-44.09-.44-66.04l-19.62-177.9-83.19,77.62,16.38,99.13c3.34,20.2,5.68,40.83,6.94,61.29l-.26,305.8Z"/>
            </g>
            <path class="cls-1" d="m217.9,1796.2h75.9c8.92,0,16.13-7.91,14.62-16.7-.54-3.14-1.98-6.51-4.86-9.93l-56.46-28.23c-6.05-3.03-8.27-10.55-4.82-16.38l23.18-39.12c2.2-3.71-.48-8.41-4.79-8.41h-76.95c-4.35,0-8.04,3.19-8.66,7.5l-9.72,67.36-4.83,27.07c-1.26,7.05,3.91,13.62,11.06,14.05l46.32,2.79Z"/>
            <path class="cls-1" d="m97.55,1687.51h68.92c1.12,0,1.99.99,1.84,2.11l-3.98,28.97c-1.31,9.55,1.09,21.31,8.65,27l6.25,4.65,36.85,29.48c10.93,8.75,10.77,25.73-.68,33.78-1.59,1.12-3.01,1.79-4.06,1.79l-12.09.87c-16.86,1.21-33.8-.08-50.28-3.85l-54.69-12.5c-4.23,0-7.61-3.51-7.44-7.73l3.76-97.87c.14-3.74,3.21-6.69,6.96-6.69Z"/>
          </g>
          <g>
            <g>
              <path class="cls-5" d="m299.49,1157.37l3.1,8.11c6.56,17.15,7.44,35.94,2.53,53.63l-4.21,15.17-30.6-77.5,29.19.59Z"/>
              <path class="cls-1" d="m300.91,1238.72c-1.82,0-3.46-1.11-4.14-2.81l-30.6-77.5c-.54-1.38-.36-2.95.49-4.17.85-1.22,2.19-1.92,3.74-1.91l29.19.59c1.81.04,3.42,1.17,4.07,2.86l3.1,8.11c6.85,17.91,7.79,37.94,2.66,56.4l-4.21,15.17c-.51,1.84-2.14,3.15-4.05,3.25-.08,0-.16,0-.23,0Zm-24.01-77.36l23.28,58.94.66-2.39c4.63-16.65,3.78-34.71-2.4-50.85l-2.03-5.31-19.51-.4Z"/>
            </g>
            <g>
              <path class="cls-5" d="m325.79,1023.88s29.51-8.83,49.33-2.15c0,0,2.37,12.71,10.77,18.74,8.4,6.03,29.51,9.69,32.96,21.97,3.45,12.28-39.63,21.76-54.5,14.86-14.86-6.89-27.79-22.83-42.22-22.83s3.66-30.59,3.66-30.59Z"/>
              <path class="cls-1" d="m378.61,1084.06c-6.37,0-12.11-.85-16.14-2.72-6.06-2.81-11.66-6.9-17.07-10.87-8.12-5.94-15.79-11.55-23.28-11.55-5.25,0-7.66-2.86-8.64-4.56-4.96-8.7,5.23-27.26,8.47-32.74.57-.96,1.48-1.68,2.55-2,1.26-.38,31.1-9.16,52.02-2.11,1.53.52,2.66,1.82,2.95,3.4.02.1,2.18,11.05,8.99,15.94,2.32,1.67,6.19,3.29,10.29,5.02,9.56,4.01,21.45,9.01,24.35,19.37.66,2.36.96,7.02-4.47,11.64-8,6.81-25.62,11.18-40.05,11.18Zm-57.37-34.11c.07,0,.37.07.89.07,10.39,0,19.61,6.74,28.53,13.27,5.06,3.71,10.3,7.54,15.56,9.98,9.95,4.61,37.87.33,46.68-7.17.92-.78,1.84-1.84,1.66-2.46-1.75-6.22-11.04-10.13-19.23-13.57-4.58-1.92-8.9-3.74-12.04-5.99-7.26-5.21-10.61-14.29-11.89-18.82-15.56-4.11-36.65.84-42.68,2.43-5.85,10.36-8.84,20.3-7.5,22.27,0,0,0,0,.01,0Z"/>
            </g>
            <path class="cls-7" d="m282.93,1155.33h16.5c1.15,0,2.05-.98,1.95-2.13-1.33-15.05-9.35-105.59-11.16-129.7-1.97-26.32,12.87-161.75-2.54-195.33-11.24-24.48-38.1-31.59-55.31-37.09-13.01,11.43-23.35,20.89-42.02,20.89-22.73,0-41.17-11.99-54.72-28.14-16.07,3.92-31.09,10.26-41.1,14.44-23.57,9.84-38.34,33.79-35.98,59.22,4.33,46.48,38.79,100.86,38.79,100.86l-3.82,43.61c-2.34,26.68-12.29,52.13-28.67,73.32h0c-27.35,35.36-37.91,80.89-28.94,124.68l60.7,247.66,242.94-48.59-56.63-243.7Z"/>
            <path class="cls-7" d="m135.13,854.21l29.85,79.73c6.17,16.49,19.16,29.5,35.63,35.72l127.52,48.12-5.31,44.87s-169.47-24.57-197.83-47.77c-26.54-21.71-56.45-117.25-56.45-117.25l66.59-43.43Z"/>
            <path class="cls-4" d="m284.65,1063.22c-.3,0-.61-.03-.91-.09l-13.82-2.86c-57.48-11.86-129.01-26.62-147.74-41.94-6.16-5.04-14.02-14.77-21.57-26.7-1.31-2.08-.69-4.82,1.38-6.14,2.07-1.31,4.82-.7,6.14,1.38,6.96,10.99,14.31,20.18,19.68,24.57,17.04,13.94,90.36,29.07,143.91,40.12l13.83,2.86c2.4.5,3.95,2.86,3.45,5.26-.44,2.1-2.29,3.54-4.35,3.54Z"/>
            <path class="cls-4" d="m281.65,1002.46c-.49,0-.98-.08-1.47-.25l-81.04-28.36c-17.77-6.7-31.7-20.67-38.32-38.36l-29.85-79.73c-.86-2.3.3-4.87,2.6-5.73,2.31-.87,4.87.3,5.73,2.6l29.85,79.73c5.72,15.28,17.76,27.35,33.03,33.12l80.94,28.32c2.32.81,3.54,3.35,2.73,5.67-.64,1.83-2.36,2.98-4.2,2.98Z"/>
            <path class="cls-4" d="m283.35,1151.9c-1.97,0-3.77-1.32-4.3-3.32l-.19-.72c-8.87-33.73-17.24-65.59-21.26-92.37-.36-2.43,1.31-4.69,3.74-5.06,2.41-.39,4.69,1.31,5.06,3.74,3.95,26.31,12.27,57.94,21.07,91.44l.19.72c.62,2.37-.8,4.81-3.17,5.43-.38.1-.76.14-1.13.14Z"/>
            <path class="cls-4" d="m254.38,992c-2.34,0-4.29-1.82-4.44-4.18-3.28-54.75,2.8-80.39,3.06-81.45.58-2.39,2.98-3.84,5.38-3.26,2.38.58,3.85,2.99,3.27,5.37h0c-.06.25-6,25.62-2.82,78.81.15,2.45-1.72,4.56-4.17,4.71-.09,0-.18,0-.27,0Z"/>
            <path class="cls-4" d="m197.41,911.35c-1.11,0-2.22-.41-3.09-1.25-1.77-1.71-1.82-4.52-.11-6.29,5.74-5.95,8.91-13.79,8.91-22.06,0-5.56-1.45-11.02-4.21-15.81-1.22-2.13-.49-4.85,1.64-6.08,2.13-1.22,4.85-.49,6.08,1.64,3.52,6.13,5.39,13.13,5.39,20.25,0,10.59-4.05,20.62-11.4,28.24-.87.9-2.04,1.36-3.2,1.36Z"/>
            <path class="cls-4" d="m257.7,911.46c-1.11,0-2.23-.41-3.09-1.25-1.77-1.71-1.82-4.52-.11-6.29,7.44-7.71,11.54-17.86,11.54-28.58,0-7.2-1.89-14.28-5.45-20.49-1.22-2.13-.49-4.85,1.64-6.08,2.13-1.22,4.84-.49,6.08,1.64,4.34,7.55,6.63,16.17,6.63,24.92,0,13.04-4.99,25.39-14.04,34.76-.87.9-2.04,1.36-3.2,1.36Z"/>
            <path class="cls-4" d="m228.46,1221.92c-1.42,0-2.83-.68-3.69-1.95l-64.32-95.01c-1.38-2.03-.85-4.8,1.19-6.18,2.03-1.38,4.8-.85,6.18,1.19l64.32,95.01c1.38,2.03.85,4.8-1.19,6.18-.76.52-1.63.76-2.49.76Z"/>
            <path class="cls-4" d="m194.71,1243.31c-1.64,0-3.22-.92-4-2.49l-20.59-41.97c-1.08-2.2-.17-4.87,2.04-5.95,2.2-1.08,4.87-.17,5.95,2.04l20.59,41.97c1.08,2.2.17,4.87-2.04,5.95-.63.31-1.3.45-1.95.45Z"/>
          </g>
          <g>
            <g>
              <path class="cls-5" d="m246.02,688.97c-.26-2.81-13.8-8.69-16.87-12.27-3.07-3.58-2.56-8.95-4.35-13.8-1.79-4.86-8.52-10.78-8.52-10.78-37.6-45.45-79.98,4.79-79.98,4.79-8.97,12.53-5.76,30.95-1.29,41.42,8.64,20.26,32.4,34.52,32.4,34.52.25,1.03.46,2.04.64,3.03,3.38,19.04-11.96,45.84-30.76,50.38-.17.04-.34.09-.51.13,12.18,14.51,30.43,23.76,50.86,23.76,16.79,0,32.07-6.28,43.76-16.55-5.75-1.84-11.13-3.78-15.58-6.78-16.46-11.09-4.81-46.72-.72-50.04,4.09-3.32,23.28,2.36,27.46-3.09,6.17-8.02-2.92-31.94-2.92-34.24,0-1.09,1.5-2.88,3.05-4.75,1.71-2.07,3.48-4.25,3.34-5.73Z"/>
              <path class="cls-1" d="m187.64,814.59c-20.97,0-40.75-9.24-54.27-25.34-.98-1.17-1.29-2.77-.82-4.23.47-1.46,1.67-2.57,3.15-2.94l.51-.13c15.93-3.85,30.54-27.97,27.46-45.29-.06-.34-.13-.69-.2-1.04-5.75-3.75-24.71-17.17-32.55-35.55-5.34-12.52-8.08-32.01,1.77-45.76.07-.09.14-.19.22-.27.88-1.04,21.84-25.54,48.49-25.4,14.06.07,26.88,6.92,38.1,20.38,1.5,1.36,7.52,7.02,9.48,12.34.82,2.21,1.22,4.43,1.57,6.38.46,2.55.86,4.76,1.98,6.07.9,1.05,4.69,3.3,7.2,4.78,6.47,3.84,10.38,6.16,10.73,9.97h0c.31,3.34-2.06,6.2-4.34,8.97-.64.77-1.41,1.71-1.86,2.34.18.69.45,1.65.7,2.55,3.54,12.55,6.84,26.55,1.13,33.98-3.78,4.91-11.82,4.42-19.59,3.94-2.91-.17-7.25-.44-8.68,0-1.75,2.33-7.45,17.71-5.81,30.56.74,5.8,2.86,9.91,6.3,12.23,3.79,2.55,8.52,4.34,14.45,6.23,1.53.49,2.67,1.76,3,3.33.33,1.57-.21,3.19-1.42,4.25-12.96,11.39-29.54,17.66-46.7,17.66Zm-43.01-26.29c11.51,11.13,26.86,17.4,43.01,17.4,12.36,0,24.38-3.73,34.58-10.62-3.06-1.23-6.12-2.71-8.89-4.58-6.39-4.31-10.01-11.96-10.46-22.13-.61-13.62,4.79-31.29,9.42-35.05,3.15-2.56,8.26-2.25,14.75-1.86,3.45.21,10.64.65,12.05-.55,3.42-4.44-1.18-20.73-2.69-26.07-.92-3.24-1.2-4.32-1.2-5.39,0-2.66,1.82-4.87,3.94-7.43.49-.6,1.21-1.47,1.76-2.22-1.53-1.09-4.03-2.57-5.7-3.56-4.06-2.41-7.56-4.49-9.41-6.65-2.69-3.14-3.37-6.93-3.98-10.27-.32-1.75-.62-3.41-1.16-4.89-1.01-2.75-5.01-6.97-7.29-8.98-.17-.15-.34-.32-.48-.5-9.52-11.5-20.11-17.36-31.51-17.41h-.16c-21.59,0-39.82,20.33-41.38,22.12-8.09,11.49-4.26,28.6-.71,36.93,7.98,18.71,30.37,32.32,30.6,32.45,1.02.61,1.75,1.61,2.03,2.77.27,1.12.5,2.22.69,3.3,3.51,19.72-10.18,44.66-27.8,53.2Z"/>
            </g>
            <g>
              <path class="cls-1" d="m0,661.27c0-33.26,15.46-56.64,43.7-69.89,10.69-5.01,26.73-13.13,39.31-13.13,45.85,0,83.02,37.17,83.02,83.02s-37.17,83.02-83.02,83.02c-21.28,0-33.8-12.32-48.49-25.49-16.96-15.2-34.53-32.96-34.53-57.52Z"/>
              <path class="cls-1" d="m220.48,646.91c-34.51-37.75-66.29-14.44-79.3-1.44-5.3,5.3-9.43,11.7-11.53,18.89-4.11,14.11-.18,26.46,3.5,35.09,7.19,16.85,24.34,29.75,31.15,34.38,1.68,1.14,3.91.96,5.41-.4,4-3.64,7.34-7.11,10.15-10.42,1.34-1.57.95-3.95-.83-5-.49-.29-.97-.6-1.43-.95-6.25-4.63-8.03-12.82-3.98-18.29,4.05-5.47,12.41-6.15,18.66-1.52.43.32.84.66,1.23,1.02,3.12-11.4,2.03-20.75,6.29-29.51,6.04-12.42,16.93-14.25,22.15-14.37,2.2-2.63-1.47-7.47-1.47-7.47Z"/>
            </g>
          </g>
        </g>
        <g>
          <g>
            <g>
              <g>
                <path class="cls-5" d="m837.89,1785.27l-55.74-4.55,2.16-5.97c5.08-14.06,7.33-28.99,6.62-43.93l-.44-9.2,39.87,7.35,7.53,56.3Z"/>
                <path class="cls-1" d="m843.03,1790.15l-67.04-5.47,4.14-11.45c4.91-13.58,7.05-27.78,6.36-42.2l-.7-14.8,48.56,8.95,8.68,64.97Zm-54.72-13.39l44.44,3.63-6.37-47.63-31.18-5.75.17,3.6c.74,15.6-1.57,30.96-6.88,45.65l-.18.5Z"/>
              </g>
              <g>
                <g>
                  <path class="cls-5" d="m777.87,1753.22c-3.21,3.08-6.6,6.61-9.25,9.96-8.93,11.27-33.61,23.89-38.52,25.52-3.69,1.22-8.05,3.07-11.51,5.7-3.9,2.96-5.85,7.84-5.36,12.72l.24,2.37c.3,2.94,2.02,5.55,4.63,6.94,5.43,2.89,16.44,7,34.75,6.73,28.03-.41,53.92-4.46,71.69-5.3,17.77-.84,28.58-3.48,33.43-10.25,4.38-6.12-3.9-38.61-11.07-48.06-1.13-1.49-3.09-2.08-4.89-1.56-3.37.97-9.28,3.3-13.8,8.47-4.27,4.89-14.18,8.78-23.13,9.83-6.97.81-13.24-4.31-13.92-11.29-.23-2.31-.49-4.82-.8-7.32-.74-6.08-8.08-8.7-12.5-4.46Z"/>
                  <path class="cls-1" d="m751.14,1827.62c-17.67,0-28.82-3.92-35.13-7.26-3.91-2.08-6.52-5.97-6.97-10.42l-.24-2.37c-.67-6.48,2.05-12.89,7.09-16.72,3.31-2.51,7.62-4.66,12.8-6.38,4.88-1.62,28.41-13.92,36.44-24.06,3.12-3.93,6.98-7.83,9.66-10.41,3.27-3.13,7.94-4.14,12.2-2.62,4.26,1.52,7.24,5.25,7.79,9.75.31,2.54.58,5.09.81,7.42.21,2.2,1.28,4.18,3.01,5.57,1.7,1.37,3.8,1.99,5.97,1.73,8.27-.97,16.99-4.55,20.29-8.33,5.31-6.09,12.26-8.77,15.92-9.82,3.56-1.03,7.45.24,9.65,3.14,6.98,9.2,17.47,44.5,11.15,53.34-5.45,7.62-16.12,11.13-36.83,12.1-6.71.32-14.49,1.09-23.5,1.98-14.47,1.44-30.88,3.06-48.34,3.32-.6,0-1.19.01-1.77.01Zm31.82-72.03c-.6,0-1.33.18-2.02.84h0c-3.57,3.42-6.63,6.71-8.85,9.51-9.85,12.43-35.45,25.26-40.61,26.98-4.2,1.39-7.73,3.13-10.22,5.02-2.59,1.96-3.97,5.3-3.62,8.72l.24,2.37c.15,1.49,1.01,2.79,2.29,3.47,4.58,2.43,14.85,6.47,32.6,6.21,17.08-.25,33.29-1.86,47.59-3.28,8.75-.87,17.02-1.69,23.95-2.02,17.19-.81,26.45-3.4,30.02-8.4,2.45-4.67-4.4-34.09-11-42.78-2.83.8-7.97,2.77-11.79,7.14-5.56,6.37-17.04,10.28-25.96,11.32-4.55.51-9.01-.76-12.59-3.65-3.6-2.9-5.83-7.03-6.28-11.63-.22-2.27-.48-4.75-.78-7.21-.2-1.66-1.43-2.26-1.95-2.45-.22-.08-.59-.18-1.04-.18Z"/>
                </g>
                <path class="cls-1" d="m760.78,1814.59c-14.16,0-27.62-1.05-38.1-3.88-2.37-.64-3.77-3.08-3.13-5.46.64-2.37,3.07-3.77,5.46-3.13,37.28,10.08,118.71-4.45,119.53-4.59,2.39-.41,4.73,1.17,5.17,3.59.44,2.42-1.17,4.73-3.59,5.17-2.51.45-46.54,8.31-85.33,8.31Z"/>
              </g>
            </g>
            <g>
              <g>
                <path class="cls-5" d="m651.28,1772.14l-53.67-4.63,2.11-5.75c4.96-13.52,7.19-27.89,6.58-42.28l-.38-8.86,38.37,7.26,7,54.26Z"/>
                <path class="cls-1" d="m656.4,1777.05l-64.97-5.6,4.11-11.21c4.78-13.04,6.9-26.69,6.31-40.56l-.62-14.47,47.06,8.9,8.11,62.94Zm-52.61-13.47l42.38,3.66-5.88-45.59-29.69-5.62.14,3.26c.64,15.05-1.66,29.86-6.85,44.01l-.1.28Z"/>
              </g>
              <g>
                <g>
                  <path class="cls-5" d="m589.45,1739.53c-3.36,3.07-6.9,6.6-9.69,9.96-9.39,11.3-34.91,23.61-39.97,25.16-3.8,1.16-8.3,2.94-11.9,5.55-4.06,2.93-6.17,7.87-5.77,12.87l.19,2.43c.24,3.01,1.93,5.72,4.57,7.2,5.48,3.08,16.63,7.54,35.34,7.7,28.65.25,55.2-3.27,73.37-3.71,18.17-.44,29.29-2.87,34.4-9.68,4.62-6.15-3.06-39.54-10.17-49.37-1.12-1.55-3.1-2.2-4.95-1.71-3.46.91-9.56,3.15-14.3,8.33-4.48,4.9-14.69,8.63-23.87,9.49-7.14.67-13.42-4.72-13.95-11.86-.18-2.36-.39-4.94-.64-7.49-.61-6.23-8.04-9.08-12.66-4.86Z"/>
                  <path class="cls-1" d="m565.2,1814.85c-1,0-2.01,0-3.02-.01-19.1-.17-30.92-4.59-37.48-8.27-3.92-2.2-6.47-6.21-6.83-10.73l-.19-2.43c-.52-6.61,2.39-13.06,7.6-16.82,3.43-2.48,7.87-4.56,13.2-6.2,5.03-1.54,29.39-13.56,37.85-23.75,3.28-3.94,7.31-7.83,10.11-10.39h0c3.39-3.1,8.15-4.01,12.43-2.37,4.28,1.64,7.22,5.5,7.67,10.07.25,2.59.47,5.2.65,7.6.17,2.28,1.22,4.35,2.97,5.83,1.72,1.46,3.9,2.14,6.13,1.94,8.5-.79,17.52-4.26,21-8.06,5.56-6.08,12.69-8.64,16.45-9.63,3.63-.94,7.53.42,9.69,3.41,6.9,9.54,16.77,45.79,10.12,54.65-5.73,7.63-16.69,10.95-37.84,11.45-6.86.16-14.82.77-24.04,1.47-13.99,1.06-29.74,2.25-46.46,2.25Zm27.25-72.04c-3.72,3.41-6.93,6.7-9.28,9.52-10.34,12.44-36.78,24.94-42.09,26.57-4.33,1.33-8,3.02-10.59,4.9-2.71,1.96-4.23,5.37-3.95,8.91l.19,2.43c.12,1.56.99,2.93,2.31,3.68,4.62,2.59,15.09,6.98,33.2,7.13,17.49.12,34.08-1.11,48.73-2.22,8.95-.68,17.41-1.32,24.5-1.49,17.86-.43,27.11-2.79,30.95-7.9,2.66-4.69-3.63-34.99-10.22-44.09-3.03.72-8.35,2.61-12.37,7.01-5.81,6.36-17.61,10.07-26.73,10.91-4.62.44-9.14-.99-12.7-4-3.59-3.04-5.75-7.28-6.1-11.96-.17-2.33-.38-4.86-.63-7.39-.17-1.75-1.45-2.42-2-2.63-.54-.21-1.95-.56-3.24.62h0Z"/>
                </g>
                <path class="cls-1" d="m576.82,1801.5c-14.85,0-29.56-1-42.23-3.72-2.4-.52-3.93-2.88-3.42-5.28.52-2.4,2.88-3.92,5.28-3.42,46.24,9.91,124.21-4.45,125-4.6,2.39-.46,4.74,1.14,5.19,3.56.45,2.41-1.14,4.74-3.56,5.19-2.4.45-44.87,8.27-86.26,8.27Z"/>
              </g>
            </g>
            <path class="cls-1" d="m711.47,1304.83c-5.72,16.76-27.52,129.83-33.63,174.12-5.56,40.29-14.29,212.38-15.94,241.26-.14,2.49-2.21,4.43-4.71,4.43h-64.66c-2.42,0-4.45-1.83-4.69-4.24-3.01-29.95-21.34-221.44-18.54-302.55,3.06-88.59,42.8-193.98,50.45-223,7.64-29.02,17.12-97.7,17.12-97.7l175.66,11.42s38.05,216.11,41.11,255.82c3.06,39.71,9.03,168.17,1.39,236.9-4.95,44.53-8.67,108.61-10.47,124.07-.84,7.17-6.91,12.57-14.13,12.57h-50.49c-2.58,0-4.68-2.06-4.71-4.64-.23-18.54-2.99-112.94-14.82-173.39-13.76-70.26-29.04-180.23-36.69-224.52-2.53-14.65-4.72-31.46-6.52-47.41,0,0,.01.11-5.71,16.87Z"/>
            <path class="cls-4" d="m715.95,1304.74c-2.23,0-4.16-1.68-4.41-3.95-1.27-11.2-2.27-21.58-3-29.36-1.22-12.99-7.94-24.9-18.45-32.67-1.97-1.46-2.39-4.25-.93-6.22,1.46-1.98,4.25-2.39,6.22-.93,12.53,9.28,20.56,23.49,22.01,38.99.73,7.74,1.73,18.06,2.99,29.19.28,2.44-1.48,4.65-3.92,4.92-.17.02-.34.03-.51.03Z"/>
            <path class="cls-4" d="m827.06,1215.65h-.11c-27.71-.64-40.21-27.07-44.3-38.39-.83-2.31.36-4.86,2.67-5.7,2.32-.83,4.86.37,5.7,2.67,3.47,9.61,13.93,32.01,36.14,32.52,2.46.06,4.4,2.1,4.34,4.55-.06,2.42-2.04,4.34-4.45,4.34Z"/>
            <path class="cls-4" d="m625.84,1211.83c-2.23,0-4.16-1.68-4.41-3.95-.28-2.44,1.48-4.64,3.92-4.92,23.65-2.68,22.97-29.79,22.93-30.94-.09-2.46,1.83-4.51,4.29-4.6,2.54-.18,4.51,1.84,4.6,4.29.44,12.61-5.43,37.21-30.82,40.09-.17.02-.34.03-.51.03Z"/>
          </g>
          <g>
            <g>
              <path class="cls-5" d="m899.9,1197.57s-5.66,20.25-5.43,28.06c.23,7.81.69,30.77,4.13,34.22,3.44,3.44,10.56-.92,10.56-16.08,0-8.47.43-13.79.81-16.83.13-1.02,1.52-1.23,1.91-.28,2.12,5.11,6,15.44,6,22.62,0,9.87-2.53,36.74,8.73,38.81,10.19,1.87,19.18-16.72,21.74-44.59.49-5.4-.08-10.84-1.52-16.07-2.24-8.19-5.53-21.41-5.53-28.67l-41.42-1.19Z"/>
              <path class="cls-1" d="m928.02,1292.67c-.73,0-1.47-.07-2.2-.2-13.48-2.48-12.87-24.14-12.47-38.47.05-1.81.1-3.41.1-4.71,0-.35-.01-.71-.03-1.09-.82,8.46-4.03,14.51-8.95,16.55-3.16,1.3-6.61.65-9-1.74-3.34-3.34-4.75-12.74-5.4-35.91l-.04-1.33c-.25-8.24,4.99-27.24,5.59-29.38.55-1.97,2.27-3.38,4.41-3.25l41.42,1.19c2.41.07,4.32,2.04,4.32,4.45,0,5.09,1.91,14.86,5.37,27.49,1.63,5.94,2.19,11.88,1.66,17.65-2.08,22.7-8.13,39.41-16.6,45.83-2.56,1.94-5.35,2.94-8.17,2.94Zm-17.04-71.07c2.17,0,4.17,1.31,5.02,3.36,2.37,5.69,6.34,16.44,6.34,24.32,0,1.37-.05,3.06-.1,4.97-.2,7.02-.8,28.37,5.19,29.47.68.12,1.78.15,3.39-1.07,4.71-3.57,10.96-16.07,13.11-39.56.43-4.7-.03-9.58-1.38-14.49-2.15-7.83-4.63-17.99-5.43-25.52l-33.85-.97c-1.78,6.85-4.51,18.48-4.36,23.38l.04,1.34c.54,19.43,1.67,26.77,2.62,29.32,1.19-1.14,3.15-4.87,3.15-12.39,0-8.81.46-14.31.85-17.38.3-2.46,2.23-4.4,4.69-4.73.24-.03.49-.05.73-.05Zm-9.04,35.32h.03-.03Zm5.85-28.55s0,0,0,.01c0,0,0,0,0-.01Z"/>
            </g>
            <g>
              <path class="cls-5" d="m425.69,1028.22s-42.17-13.17-46.27-12.52c-4.09.65-9.26,7.97-19.6,13.14-10.34,5.17-18.09,8.19-15.94,12.71,1.91,4.02,20.85,3.45,34.41-1.72,2.73-1.04,5.85-.17,7.7,2.09,4.54,5.52,25.4,16.06,44.3,16.66l-4.61-30.34Z"/>
              <path class="cls-1" d="m430.3,1063.01s-.09,0-.14,0c-19.4-.61-41.9-11.34-47.6-18.28-.65-.8-1.75-1.11-2.68-.75-11.42,4.36-35.9,8.12-40.01-.52-3.78-7.94,5.02-12.25,14.33-16.81,1.16-.57,2.38-1.16,3.64-1.79,4.99-2.49,8.75-5.61,11.78-8.11,3.34-2.76,5.98-4.95,9.12-5.44,3.39-.58,19.64,3.73,48.28,12.67,1.62.51,2.81,1.89,3.07,3.58l4.61,30.35c.2,1.31-.19,2.63-1.07,3.62-.85.95-2.06,1.5-3.33,1.5Zm-49.61-28.08c3.31,0,6.54,1.47,8.75,4.15,3.1,3.77,19.28,12.49,35.62,14.6l-3.35-22.04c-18.26-5.65-37.98-11.25-41.73-11.51-.91.34-3.09,2.13-4.7,3.47-3.2,2.65-7.58,6.27-13.47,9.22-1.28.64-2.52,1.25-3.71,1.83-3,1.47-6.82,3.34-8.88,4.76,4.96.81,17.05.25,27.49-3.73,1.3-.5,2.65-.74,3.98-.74Z"/>
            </g>
            <g>
              <g>
                <path class="cls-7" d="m940.41,1004.62c-16.57-87.39-42.91-158.17-55-175.95-32.56-47.87-138.21-69.03-138.3-69.06-7.95,5.33-57.31,8.69-66.66,4.32-.93.52-87.64,25.92-113.57,60.98-23.02,31.12-17.2,134.39-39.45,153.57-20.88,18-102.74,45.16-102.74,45.16l5.96,43.1s118.96-11.35,127.29-13.01c8.33-1.67,38.31-8.33,44.98-33.87,1.92-7.34,4.7-22.35,7.7-40l19.34,138.32h0c34.91,12.97,72.55,16.84,109.37,11.23l73.8-11.23,18.02-201.19s3.73,9.69,9.14,24.48c22.15,60.53,38.07,123.17,47.51,186.93l10.44,70.43,44.59.52c-.39-92.87,9.61-131.21-2.43-194.72Z"/>
                <path class="cls-1" d="m942.83,1203.79h-.05l-44.59-.52c-2.18-.03-4.03-1.63-4.35-3.8l-10.44-70.43c-9.39-63.37-25.3-125.97-47.29-186.05-.8-2.17-1.56-4.24-2.28-6.19l-16.28,181.76c-.18,2.04-1.73,3.69-3.76,4l-73.8,11.23c-37.47,5.7-76.05,1.74-111.59-11.46-1.53-.57-2.63-1.93-2.86-3.55l-15.5-110.79c-1.11,5.65-2.06,9.99-2.84,12.98-4.87,18.66-22.06,31.84-48.41,37.11-8.45,1.69-122.87,12.62-127.74,13.08-2.37.23-4.5-1.46-4.83-3.82l-5.96-43.1c-.29-2.12.97-4.16,3.01-4.83.81-.27,81.26-27.09,101.24-44.31,9.95-8.58,14.07-40.06,18.06-70.5,4.25-32.46,8.64-66.02,20.72-82.35,21.4-28.93,80.49-51.21,113.81-61.91.83-.26,1.39-.44,1.65-.54,1.14-.47,2.44-.44,3.57.09,7.77,3.62,55.5.57,62.3-3.99,1.02-.68,2.26-.9,3.43-.65,11.23,2.33,109.01,23.84,141.02,70.91,12.8,18.82,39.27,91.02,55.69,177.63,7.84,41.37,6.48,71.65,4.58,113.57-1.04,22.94-2.21,48.94-2.08,81.96,0,1.19-.47,2.33-1.31,3.17-.83.83-1.96,1.29-3.13,1.29Zm-40.75-9.37l36.29.42c-.02-31.1,1.1-55.89,2.1-77.88,1.87-41.31,3.22-71.16-4.43-111.51h0c-16.19-85.42-41.95-156.1-54.31-174.28-29.01-42.64-120.98-64.04-134.01-66.89-12.19,5.31-54.41,8.05-67.3,4.34-.18.06-.37.12-.58.19-54.96,17.66-94.83,39.07-109.38,58.73-10.71,14.48-14.95,46.88-19.05,78.21-4.58,35.03-8.55,65.29-21.07,76.08-19.03,16.41-84.58,39.34-100.73,44.83l4.87,35.23c35.67-3.42,116.21-11.27,122.59-12.54,13.22-2.64,36.2-10.14,41.54-30.63,1.69-6.49,4.25-19.82,7.62-39.62.36-2.14,2.22-3.7,4.38-3.7h.06c2.2.03,4.04,1.66,4.34,3.83l18.97,135.67c33.43,11.95,69.55,15.44,104.67,10.1l70.35-10.7,17.71-197.71c.19-2.06,1.77-3.72,3.81-4.01,2.04-.28,4.02.87,4.77,2.81.03.1,3.8,9.89,9.17,24.55,22.2,60.65,38.26,123.84,47.73,187.81l9.88,66.68Zm-154.98-434.81h.03-.03Z"/>
              </g>
              <path class="cls-1" d="m612,998.04c-2.28,0-4.23-1.75-4.42-4.07-2.22-25.62-6.79-48.29-12.08-74.53-1.54-7.63-3.14-15.57-4.77-23.99-.47-2.41,1.11-4.74,3.52-5.21,2.39-.47,4.74,1.11,5.21,3.52,1.62,8.39,3.22,16.31,4.76,23.91,5.35,26.51,9.96,49.4,12.22,75.53.21,2.45-1.6,4.6-4.05,4.81-.13.01-.26.02-.39.02Z"/>
              <path class="cls-1" d="m701.31,952.03c-1.81,0-3.52-1.12-4.18-2.92l-20.14-54.88c-.85-2.31.34-4.86,2.64-5.71,2.3-.84,4.86.34,5.71,2.64l20.14,54.88c.85,2.31-.34,4.86-2.64,5.71-.5.19-1.02.27-1.53.27Z"/>
            </g>
          </g>
          <g>
            <path class="cls-1" d="m654.84,673.39c-1.58,0-2.82-.43-3.66-.86-5.91-3.01-6.48-12.52-1.35-22.61,5.13-10.1,13.15-15.24,19.07-12.24,1.91.97,5.08,3.6,4.84,10.31-.14,3.78-1.38,8.14-3.49,12.3h0c-2.11,4.16-4.91,7.73-7.88,10.07-2.96,2.32-5.51,3.03-7.52,3.03Zm9.89-27.52c-1.42.61-4.45,3.1-6.97,8.08-2.53,4.97-2.76,8.88-2.41,10.39,1.42-.61,4.44-3.1,6.97-8.07h0c2.53-4.97,2.76-8.88,2.42-10.39Z"/>
            <g>
              <g>
                <path class="cls-5" d="m709.29,782.72c9.68,0,18.98-1.57,27.71-4.41,7.88-2.57,15.3-6.16,22.05-10.68-29.4-10.32-19.04-55.08-19.04-55.08,22.21-48.92,4.93-80.08-21.3-86.56-37.25-9.2-41.97,12.44-41.97,12.44-2.82,5.81-9.4,19.36-11.95,20.92-3.13,1.91-10.6,3.82-11.81,5.39-1.22,1.56-.52,6.6,4.17,10.94,0,0-13.55,28.32-9.03,36.83,4.52,8.51,36.65,15.63,36.65,15.63,0,0,7.55,34.39-13.33,46.17,7.94,3.71,16.5,6.31,25.5,7.55,4.04.56,8.16.87,12.36.87Z"/>
                <path class="cls-1" d="m709.29,787.17c-4.23,0-8.6-.31-12.97-.91-9.25-1.28-18.26-3.95-26.78-7.93-1.51-.71-2.5-2.2-2.56-3.86-.06-1.67.81-3.23,2.26-4.05,14.69-8.29,12.8-30.81,11.64-38.63-10.18-2.44-32.13-8.6-36.71-17.22-4.63-8.72,3.48-28.87,7.67-38.1-3.95-4.99-5.08-11.04-2.39-14.49,1.37-1.77,3.76-2.73,7.87-4.27,1.81-.68,3.84-1.45,4.94-2.06,1.07-1.1,3.72-5.31,10.27-18.79.58-2.04,2.89-8.25,10.19-12.79,8.82-5.49,21.28-6.31,37.04-2.41,13.05,3.22,23.5,11.74,29.43,23.98,8.63,17.81,6.87,42.05-4.95,68.3-.87,4.25-7.66,41.08,16.27,49.48,1.59.56,2.73,1.97,2.94,3.64.21,1.67-.54,3.32-1.94,4.25-7.09,4.75-14.88,8.53-23.15,11.22-9.44,3.08-19.23,4.63-29.09,4.63Zm-29.09-14.04c5.62,2.05,11.43,3.5,17.34,4.31,13.21,1.84,25.85.62,38.08-3.37,4.95-1.61,9.71-3.65,14.22-6.09-23.28-15.61-14.59-54.63-14.17-56.44.07-.29.16-.57.28-.84,10.88-23.97,12.75-45.69,5.24-61.18-4.76-9.82-13.12-16.65-23.56-19.23-31.96-7.89-36.4,8.43-36.58,9.13-.08.3-.2.66-.33.94-8.37,17.25-11.25,21.31-13.64,22.77-1.76,1.08-4.23,2.01-6.63,2.91-1.07.4-2.51.94-3.49,1.38.24,1.07,1.02,2.98,3.19,4.98,1.43,1.32,1.83,3.43.99,5.18-6.08,12.7-11.19,28.92-9.12,32.82,2.13,4.01,19.13,10.15,33.69,13.38,1.69.38,3.01,1.7,3.38,3.39.3,1.37,6.42,30.31-8.9,45.96Z"/>
              </g>
              <path class="cls-1" d="m739.6,612.62c-9.36-2.7-20.34-2.16-24.83-4.14-7.26-3.19-6.34-11.79-16.82-13.55-9.21-1.55-17.98-.57-23.27,6.13-.88,1.12-1.68,2.38-2.35,3.83-9.04,19.44.22,30,4.41,33.52,0,0,27.1,16.02,31.64,20.35,4.25,4.05,8.88,13.2,4.85,25.52-.51,1.57.05,3.29,1.42,4.22l.07.05c1.64,1.11,3.84.82,5.09-.69,3.94-4.76,12.48-13.89,17.99-11.14,6.71,3.36,7.3,21.68-7.14,23.53-2.62.34-4.15,3.09-3.09,5.51,1.66,3.8,5.16,7.98,12.44,6.79,0,0,32.29-19.06,38.36-47.33,6.07-28.27-26.32-49.01-38.77-52.6Z"/>
            </g>
            <path class="cls-1" d="m676.45,681.41c-1.66,0-3.27-.36-4.77-1.13-3.59-1.82-5.88-5.66-6.28-10.52-.34-4.15.68-8.81,2.88-13.13,2.19-4.32,5.36-7.89,8.92-10.06,4.17-2.54,8.62-2.95,12.21-1.12,3.59,1.82,5.88,5.66,6.28,10.52.34,4.15-.68,8.81-2.87,13.13h0c-3.88,7.64-10.41,12.31-16.36,12.31Zm8.13-28.2c-.75,0-1.73.33-2.75.95-2.13,1.3-4.18,3.67-5.62,6.5-1.44,2.83-2.14,5.88-1.94,8.37.14,1.67.69,2.94,1.45,3.33,1.73.88,6.26-1.58,9.17-7.29,1.44-2.83,2.14-5.88,1.93-8.37-.14-1.67-.69-2.94-1.45-3.33-.22-.11-.48-.16-.79-.16Zm4.27,13.87h.03-.03Z"/>
            <path class="cls-1" d="m672.52,661.97c-1.68,0-3.28-.96-4.03-2.57-.12-.23-.33-.52-.49-.66-2.35-.02-4.29-1.89-4.4-4.26-.1-2.45,1.8-4.53,4.26-4.63,4.78-.09,7.7,3.59,8.72,5.86,1,2.24,0,4.87-2.24,5.88-.59.26-1.21.39-1.81.39Z"/>
            <path class="cls-1" d="m722.49,679.65c-.62,0-1.26-.13-1.86-.41l-31.3-14.43c-2.23-1.03-3.21-3.67-2.18-5.9,1.03-2.23,3.67-3.21,5.9-2.18l31.3,14.43c2.23,1.03,3.21,3.67,2.18,5.9-.75,1.63-2.36,2.59-4.04,2.59Z"/>
          </g>
        </g>
      </g>
    </g>
  </g>
</svg>